<svg xmlns="http://www.w3.org/2000/svg" viewBox="0 0 760 600">
<defs><linearGradient id="g" x1="0" y1="0" x2="1" y2="1"><stop stop-color="#edf1ff"/><stop offset="1" stop-color="#fff4ed"/></linearGradient><filter id="s"><feDropShadow dx="0" dy="24" stdDeviation="24" flood-opacity=".16"/></filter></defs>
<rect width="760" height="600" rx="48" fill="url(#g)"/>
<ellipse cx="385" cy="495" rx="270" ry="42" fill="#cdd3e8" opacity=".35"/>
<g filter="url(#s)">
<path d="M175 200h220l-17 238H195z" fill="#d7b58b"/>
<path d="M222 200c0-72 36-105 63-105s63 33 63 105" fill="none" stroke="#23398e" stroke-width="16" stroke-linecap="round"/>
<rect x="228" y="270" width="114" height="78" rx="13" fill="#f8f5ef"/><text x="285" y="304" text-anchor="middle" font-size="18" font-family="Arial" font-weight="700" fill="#24398f">IMEDIATA</text><text x="285" y="329" text-anchor="middle" font-size="12" font-family="Arial" fill="#6e7484">EMBALAGEM</text>
<g transform="translate(360 245)"><path d="M0 72 142 0l190 70-145 76z" fill="#fff"/><path d="M0 72v165l187 72V146z" fill="#eef1f7"/><path d="M187 146v163l145-75V70z" fill="#dfe4ef"/><path d="M187 146 0 72" stroke="#24398f" stroke-width="4"/><path d="M187 146 332 70" stroke="#24398f" stroke-width="4"/><path d="M142 0l45 146" stroke="#ff7b5c" stroke-width="4"/><text x="169" y="205" transform="rotate(20 169 205)" text-anchor="middle" font-size="22" font-family="Arial" font-weight="700" fill="#24398f">IMEDIATA</text></g>
</g>
<circle cx="650" cy="115" r="34" fill="#ff7b5c"/><path d="M637 115h26M650 102v26" stroke="#fff" stroke-width="5" stroke-linecap="round"/>
</svg>